<?xml version="1.0" encoding="UTF-8"?>
<svg id="Layer_1" xmlns="http://www.w3.org/2000/svg" version="1.1" viewBox="0 0 200 200">
  <!-- Generator: Adobe Illustrator 29.2.1, SVG Export Plug-In . SVG Version: 2.1.0 Build 116)  -->
  <defs>
    <style>
      .st0 {
        fill: #174ea6;
      }

      .st1 {
        fill: #ea4335;
      }

      .st2 {
        fill: #0d652d;
      }

      .st3 {
        fill: #fbbc04;
      }

      .st4 {
        fill: #1a73e8;
      }

      .st5 {
        fill: #34a853;
      }
    </style>
  </defs>
  <g id="g1">
    <path id="path58" class="st3" d="M0,176.7L96.7,23.3h60v21.3l-83.3,132"/>
    <path id="path64" class="st4" d="M156.7,176.7h-60V23.3h60v153.3h0Z"/>
    <path id="path70" class="st5" d="M200,133.3c0,23.9-19.4,43.3-43.3,43.3v-86.7c23.9,0,43.3,19.4,43.3,43.3h0Z"/>
    <path id="path76" class="st2" d="M156.7,176.7c-23.9,0-43.3-19.4-43.3-43.3s19.4-43.3,43.3-43.3v86.7h0Z"/>
    <path id="path82" class="st4" d="M190,56.7c0,18.4-14.9,33.3-33.3,33.3V23.3c18.4,0,33.3,14.9,33.3,33.3h0Z"/>
    <path id="path88" class="st0" d="M156.7,90c-18.4,0-33.3-14.9-33.3-33.3s14.9-33.3,33.3-33.3v66.7h0Z"/>
    <path id="path94" class="st1" d="M3.3,53.3c0-16.6,13.4-30,30-30s30,13.4,30,30-13.4,30-30,30S3.3,69.9,3.3,53.3Z"/>
  </g>
</svg>